<svg id="Layer_1" xmlns="http://www.w3.org/2000/svg" viewBox="0 0 44.5 44.5"><style>.st0{fill:#70a31a}</style><path class="st0" d="M22.2 1C10.5 1 1 10.5 1 22.2 1 34 10.5 43.5 22.2 43.5S43.5 34 43.5 22.3C43.5 10.5 34 1 22.2 1zm0 40.1c-10.4 0-18.9-8.5-18.9-18.9S11.8 3.3 22.2 3.3s18.9 8.5 18.9 18.9c0 10.5-8.4 18.9-18.9 18.9z"/><path class="st0" d="M21.2 8.6l-2.4 1.7c-.2-.4-.5-.6-.9-.6h-2.6c-.6 0-1 .4-1 1v2.9l-4.2 3c-.4.3-.7.8-.8 1.3s0 1.1.4 1.5c.4.5 1 .8 1.6.8H13V32c0 .6.4 1 1 1h18c.6 0 1-.4 1-1V20.3h1.7c1.1 0 2-.9 2-2 0-.6-.3-1.2-.8-1.6l-11.2-8c-1-.8-2.4-.8-3.5-.1zM32 18.3c-.6 0-1 .4-1 1V31H15V19.2c0-.6-.4-1-1-1h-2.7l4.6-3.3c.3-.2.4-.5.4-.8v-2.4h.6v.5c0 .4.2.7.5.9.3.2.7.1 1-.1l3.9-2.8c.3-.2.8-.3 1.2 0l11.2 8H32z"/><path class="st0" d="M22.2 21v7c0 .6.4 1 1 1h4c.6 0 1-.4 1-1v-7c0-.6-.4-1-1-1h-4c-.5 0-1 .4-1 1zm2 1h2v5h-2v-5z"/></svg>