<svg xmlns="http://www.w3.org/2000/svg" viewBox="0 0 47.5 44.5"><path d="M43.1 27.7c3.1-11.4-3.6-23.1-15-26.2-11.4-3.1-23.2 3.6-26.3 15-3.1 11.4 3.6 23.1 15 26.2 5.1 1.4 10.6.8 15.4-1.6 3.7 3 9.1 2.4 12.1-1.3 3-3.6 2.5-9.1-1.2-12.1zM5.4 30.4c-1.2-2.6-1.8-5.4-1.8-8.2-.2-10.5 8.1-19.1 18.6-19.3s19.1 8.2 19.3 18.7c0 1.7-.2 3.4-.6 5-3.4-1.3-7.2-.4-9.5 2.4l-.3-.1-1.6-.6-1.2-.4-1.5-.7-.1-.8-.1-.7.1-.6.1-1.1c.7-.8 1-1.8 1-2.9l.2-.3.2-.5.3-.9.1-.6.2-.7-.2-.6-.2-.6.2-.6v-.8l-.1-.5v-1.9l-.2-.8-.4-.6-.5-.9-.4-.7-.8-.3-.6-.4-.9-.5-.8-.3h-3l-1.1.4-.5.3-.9.9-.8.9-.5 1.1v.3l-.5.8.1 1-.1.8.1 1.8-.3.2-.2.3v.9l.3.9.1.8.5.7.4.5.5.2.2 2.9-.2.9-.3.5-.2.6-.5.5-1.2 1.2-1.4.8-1.4.8-1.9 1-.6.2-.7.4-.7.7v.7c4.9 6.1 13.3 8.1 20.5 4.8.2.7.5 1.4 1 2-9.5 4.4-20.8.4-25.2-9zm32.5 11.9c-4.2 0-7.7-3.4-7.7-7.7 0-4.3 3.4-7.7 7.7-7.7 4.3 0 7.7 3.4 7.7 7.7-.1 4.3-3.5 7.7-7.7 7.7zm1.5-12.1h-3.1v2.9h-2.9v3h2.9v3h3.1v-3h2.9v-3h-2.9v-2.9z" fill="#70a424"/></svg>