<svg id="Layer_1" xmlns="http://www.w3.org/2000/svg" viewBox="0 0 44.5 44.5"><style>.st0{fill:#70a31a}</style><path class="st0" d="M22.2 1.5C10.5 1.5 1 11 1 22.7 1 34.5 10.5 44 22.2 44s21.3-9.5 21.3-21.2C43.5 11 34 1.5 22.2 1.5zm0 40.1c-10.4 0-18.9-8.5-18.9-18.9s8.5-18.9 19-18.9 18.9 8.5 18.9 18.9c-.1 10.5-8.5 18.9-19 18.9z"/><path class="st0" d="M29.3 28.2c-.9-.4-1.3-1.4-1.2-2.3V21c0-.5.2-1 .5-1.4.2-.2.2-.6.1-.9-.8-1.8-2.4-3-4.3-3.3-2.3-.6-4.8 0-6.6 1.7-.4.4-.7.8-.9 1.2-.3.5-.5 1 0 1.5.2.3.4.7.4 1.1v5.4c0 1-.8 1.9-1.8 2.1-1 .1-1.9-.5-2.2-1.4 0-.1-.1-.2-.1-.4-1.1-1.5-1.3-3.4-.6-5.1.4-.8.9-1.5 1.4-2.2.1-.1.1-.2.2-.3.7-3 3.2-5.3 6.2-5.8 3-.8 6.2-.1 8.6 2 1 .9 1.8 2.1 2.1 3.4.1.3.3.6.5.8l.1.1c1.4 1.8 2.2 3.8 1.4 5.9-1 2.7-2.6 5-5.8 5.6-.2 0-.4.3-.5.5-.6 1-1.9 1.3-2.9.7-1-.6-1.3-1.9-.7-2.9.2-.3.5-.6.8-.7.9-.5 2.1-.3 2.8.6.1.3.4.4.7.3h.1c.7-.3 1.4-.7 2-1l-.3-.3z"/></svg>