<svg id="Layer_1" xmlns="http://www.w3.org/2000/svg" viewBox="0 0 44.5 44.5"><style>.st0{fill:#70a31a}</style><path class="st0" d="M22.2 1.5C10.5 1.5 1 11 1 22.7 1 34.5 10.5 44 22.2 44s21.3-9.5 21.3-21.2C43.5 11 34 1.5 22.2 1.5zm0 40.1c-10.4 0-18.9-8.5-18.9-18.9s8.5-18.9 19-18.9 18.9 8.5 18.9 18.9c-.1 10.5-8.5 18.9-19 18.9z"/><path class="st0" d="M35 32.1l-.5-.7-.7-.4-1.3-.5-1.9-.6-1.5-.5-1.2-.4-1.5-.7-.1-.8-.1-.7.1-.5.1-1.1c.7-.8 1-1.8 1-2.9l.2-.3.2-.4.3-.9.1-.6.2-.7-.2-.6v-.6l.3-.6v-3.2l-.4-.8-.6-.6-.5-.9-.4-.7-.8-.3-.6-.4-.9-.5-.8-.2h-2.9l-1.1.4-.5.3-.9.9-1 .9-.7 1.1v.3l-.3.8.2 1v.8l.2 1.8-.2.1-.2.3v.9l.3.9.1.8.5.7.4.5.5.2.2 2.9-.4.8-.3.4-.2.5-.5.5-1.1 1.2-1.4.8-1.4.9-1.8.9-.6.1-.7.4-.7.7v.7c3.2 4 8.1 6.3 13.2 6.3s10-2.3 13.2-6.3v-.6l-.4-.8z"/></svg>