<svg id="Layer_1" data-name="Layer 1" xmlns="http://www.w3.org/2000/svg" viewBox="0 0 60.62 59.38"><defs><style>.cls-1{fill:#333}</style></defs><path class="cls-1" d="M46.91 42.24l-.14-.14a2.54 2.54 0 0 0-.7-2.28l-4.53-4.53a2.54 2.54 0 0 0-2.28-.7l-3.17-3.17a12.79 12.79 0 1 0-2 2.13l3.13 3.13a2.54 2.54 0 0 0 .7 2.28l4.53 4.53a2.54 2.54 0 0 0 2.28.7l.14.14.25-.25a2.52 2.52 0 0 0 .92-.58l.07-.07a2.52 2.52 0 0 0 .58-.92zM14.65 23.58a11.21 11.21 0 1 1 11.21 11.21 11.22 11.22 0 0 1-11.21-11.21z"/><path class="cls-1" d="M30.31 58.38A28.69 28.69 0 1 1 59 29.69a28.72 28.72 0 0 1-28.69 28.69zm0-54.38A25.69 25.69 0 1 0 56 29.69 25.72 25.72 0 0 0 30.31 4z"/></svg>