<svg xmlns="http://www.w3.org/2000/svg" viewBox="0 0 44.5 44.5"><path d="M21.7.5C10 .5.5 10 .5 21.8.5 33.5 10 43 21.8 43 33.5 43 43 33.5 43 21.7 43 10 33.5.5 21.7.5zm0 40.2c-10.4 0-18.9-8.5-18.9-18.9S11.3 2.9 21.7 2.9s18.9 8.5 18.9 18.9-8.4 18.8-18.9 18.9zm2.1-24.4h-3.7v3.6h-3.6v3.7h3.6v3.6h3.7v-3.6h3.6v-3.7h-3.6v-3.6zm4.9-7.6h-3.2V7.5c0-.5-.4-.9-.9-.9h-5.4c-.5 0-.9.4-.9.9v1.2h-3.2c-1.3 0-2.4 1.1-2.4 2.4v21.4c0 1.3 1.1 2.4 2.4 2.4h13.6c1.3 0 2.4-1.1 2.4-2.4V11.1c0-1.3-1.1-2.4-2.4-2.4zm-8-1.1H23c.4 0 .7.3.7.7 0 .4-.3.7-.7.7h-2.3c-.4 0-.7-.3-.7-.7.1-.4.4-.7.7-.7zm8.6 25c0 .4-.3.7-.7.7H15.1c-.4 0-.7-.3-.7-.7V11.1c0-.4.3-.7.7-.7h3.2v.9h-2.1c-.5 0-.9.4-.9.9v1.6h13.2v-1.6c0-.5-.4-.9-.9-.9h-2.1v-.9h3.2c.4 0 .7.3.7.7v21.5h-.1z" fill="#70a424"/></svg>