<svg id="Layer_1" xmlns="http://www.w3.org/2000/svg" viewBox="0 0 44.5 44.5"><style>.st0{fill:#70a31a}</style><path class="st0" d="M22.8 1.5C11 1.5 1.5 11 1.5 22.7 1.5 34.5 11 44 22.8 44S44 34.5 44 22.7C44 11 34.5 1.5 22.8 1.5zm0 40.1c-10.4 0-18.9-8.5-18.9-18.9S12.3 3.8 22.8 3.8s18.9 8.5 18.9 18.9c-.1 10.5-8.5 18.9-18.9 18.9z"/><path class="st0" d="M33.6 13.6H12.2c-1.3 0-2.4 1.1-2.4 2.4v13.6c0 1.3 1.1 2.4 2.4 2.4h21.4c1.3 0 2.4-1.1 2.4-2.4V16c0-1.3-1.1-2.4-2.4-2.4zm-21.4 1.7h21.4c.4 0 .7.3.7.7v7.2H11.5V16c0-.4.3-.7.7-.7zm21.4 15H12.2c-.4 0-.7-.3-.7-.7v-2.7h22.8v2.7c0 .4-.3.7-.7.7z"/></svg>